<?xml version="1.0" standalone="no"?>
<!DOCTYPE svg PUBLIC "-//W3C//DTD SVG 20010904//EN"
 "http://www.w3.org/TR/2001/REC-SVG-20010904/DTD/svg10.dtd">
<svg version="1.0" xmlns="http://www.w3.org/2000/svg"
 width="5000.000000pt" height="3000.000000pt" viewBox="0 0 5000.000000 3000.000000"
 preserveAspectRatio="xMidYMid meet">

<g transform="translate(0.000000,3000.000000) scale(0.100000,-0.100000)"
fill="#000000" stroke="none">
<path d="M25400 18599 c-74 -5 -153 -15 -175 -23 -22 -8 -58 -17 -80 -20 -78
-12 -239 -84 -345 -154 -142 -93 -288 -257 -401 -452 -72 -123 -159 -485 -179
-746 -6 -71 -15 -169 -21 -219 -28 -241 -28 -1524 0 -1765 6 -47 15 -148 20
-226 22 -316 110 -639 224 -829 133 -219 281 -361 483 -463 245 -123 633 -171
989 -121 311 43 533 136 706 297 60 55 179 194 179 208 0 4 7 15 15 24 29 32
104 197 138 305 75 237 97 391 104 721 4 192 2 232 -10 242 -11 9 -120 12
-438 10 l-424 -3 -11 -245 c-16 -357 -54 -531 -144 -660 -75 -108 -213 -170
-380 -170 -191 0 -327 76 -406 226 -53 99 -76 206 -103 464 -45 428 -49 1770
-6 2178 26 248 53 388 87 453 92 180 217 254 428 254 159 0 262 -42 349 -142
101 -114 155 -307 166 -587 3 -66 9 -124 13 -128 13 -13 832 -12 845 1 14 14
2 316 -17 436 -24 145 -53 269 -84 360 -123 363 -335 582 -677 700 -141 49
-250 66 -460 75 -115 5 -219 9 -230 8 -11 0 -81 -5 -155 -9z"/>
<path d="M16812 18482 c-10 -7 -12 -494 -10 -2403 l3 -2394 820 -3 c854 -3
844 -4 1055 38 140 27 332 109 430 183 128 96 220 206 296 352 42 82 112 287
124 365 5 30 17 93 26 140 13 66 17 150 18 375 1 268 -1 298 -22 390 -12 55
-29 123 -38 150 -52 164 -153 329 -259 425 -71 63 -198 134 -261 146 -69 13
-61 29 38 78 135 67 220 153 295 296 44 85 79 184 89 250 3 25 13 72 21 105
12 46 16 123 17 325 1 243 -1 274 -22 370 -13 58 -33 132 -43 165 -97 292
-299 489 -599 583 -130 41 -177 51 -285 62 -129 12 -1674 14 -1693 2z m1374
-661 c116 -24 192 -59 244 -112 39 -41 90 -130 90 -160 0 -8 8 -34 17 -59 13
-36 16 -86 16 -255 1 -183 -2 -222 -22 -303 -48 -202 -108 -275 -282 -342 -92
-35 -530 -53 -560 -23 -6 6 -9 234 -9 634 0 581 1 625 18 638 25 19 366 7 488
-18z m64 -1954 c176 -52 219 -79 295 -180 71 -95 115 -308 115 -557 0 -379
-87 -597 -273 -684 -110 -52 -201 -65 -456 -67 -128 0 -237 3 -242 8 -5 5 -9
334 -9 753 0 592 2 745 12 752 7 5 117 7 243 5 210 -4 238 -7 315 -30z"/>
<path d="M20395 18480 c-3 -5 -6 -177 -5 -382 0 -339 2 -374 17 -386 13 -10
125 -12 501 -12 265 0 487 -2 492 -5 6 -4 10 -731 10 -1999 0 -1536 3 -1995
12 -2004 9 -9 121 -12 444 -12 385 0 433 2 438 16 3 9 6 907 6 1997 0 1090 4
1988 8 1994 6 10 127 13 506 15 479 3 498 4 512 22 11 16 14 84 14 377 0 312
-2 360 -16 373 -14 14 -161 16 -1474 16 -940 0 -1461 -3 -1465 -10z"/>
<path d="M30301 18477 c-16 -20 -16 -4764 0 -4783 10 -12 210 -14 1250 -14
1214 0 1238 0 1249 19 15 30 14 763 -2 779 -9 9 -198 12 -791 12 -517 0 -785
3 -798 10 -19 11 -19 43 -19 1990 0 1947 0 1979 -19 1990 -13 6 -169 10 -439
10 -339 0 -422 -3 -431 -13z"/>
<path d="M34583 18478 c-4 -7 -13 -35 -19 -63 -6 -27 -21 -90 -33 -140 -12
-49 -28 -121 -35 -160 -7 -38 -18 -88 -24 -110 -6 -22 -21 -85 -33 -140 -52
-242 -70 -322 -80 -352 -5 -17 -16 -65 -24 -105 -20 -107 -52 -253 -64 -290
-5 -18 -13 -53 -16 -78 -4 -25 -11 -52 -15 -60 -5 -8 -15 -53 -24 -100 -8 -47
-20 -103 -25 -125 -5 -22 -20 -85 -32 -140 -12 -55 -28 -120 -35 -145 -7 -25
-15 -65 -19 -90 -4 -25 -12 -65 -20 -90 -7 -25 -16 -63 -19 -85 -6 -37 -29
-140 -61 -275 -38 -156 -48 -201 -61 -269 -7 -41 -18 -88 -23 -105 -5 -17 -12
-49 -16 -71 -3 -22 -10 -51 -15 -65 -6 -14 -16 -59 -24 -100 -8 -41 -19 -95
-25 -120 -6 -25 -20 -85 -31 -135 -11 -49 -38 -171 -61 -270 -47 -210 -73
-326 -101 -450 -10 -49 -24 -108 -30 -130 -12 -45 -43 -185 -63 -285 -7 -36
-21 -95 -30 -132 -10 -37 -15 -78 -11 -92 l6 -26 443 2 442 3 16 35 c10 19 22
71 29 115 6 44 17 105 25 135 7 30 16 80 20 110 3 30 11 69 16 85 5 17 16 68
24 115 19 103 51 275 66 350 35 175 42 207 50 228 l9 22 507 -2 508 -3 6 -35
c28 -144 39 -201 48 -245 5 -27 19 -99 31 -160 12 -60 30 -148 40 -195 10 -47
28 -141 40 -210 13 -69 28 -147 36 -175 7 -27 16 -72 19 -98 12 -83 -21 -78
503 -75 451 3 467 4 470 22 4 19 -25 159 -53 261 -7 28 -17 73 -21 100 -4 28
-11 61 -16 75 -5 14 -16 54 -23 90 -8 36 -22 103 -33 150 -11 47 -25 110 -31
140 -14 64 -46 198 -67 285 -19 80 -42 184 -59 274 -8 41 -19 89 -25 107 -6
17 -15 54 -20 80 -13 65 -45 209 -58 259 -6 22 -21 85 -32 140 -12 55 -29 127
-37 160 -9 33 -21 89 -28 125 -8 36 -18 85 -24 110 -6 25 -21 88 -32 140 -24
105 -47 208 -78 347 -12 51 -31 135 -42 185 -23 100 -49 216 -79 343 -11 44
-29 125 -40 180 -12 55 -27 125 -35 155 -8 30 -26 109 -40 175 -14 66 -32 145
-40 175 -7 30 -23 98 -34 150 -12 52 -30 131 -41 175 -10 44 -22 98 -25 120
-4 22 -12 60 -20 85 -7 25 -18 72 -24 104 -19 105 40 96 -632 96 -459 0 -590
-3 -596 -12z m612 -1018 c3 -30 12 -80 20 -110 7 -30 16 -80 20 -110 3 -30 12
-82 20 -115 8 -33 23 -114 35 -180 12 -66 30 -160 40 -210 10 -49 28 -146 40
-215 13 -69 31 -162 41 -206 11 -45 19 -95 19 -110 0 -16 5 -45 11 -64 5 -19
19 -82 29 -140 34 -192 50 -275 60 -304 15 -44 12 -74 -9 -86 -13 -6 -144 -10
-359 -10 -289 0 -341 2 -352 15 -13 16 -7 106 11 153 5 13 14 56 19 96 5 39
16 100 24 136 8 36 24 117 36 180 11 63 29 160 40 215 10 55 21 120 24 145 4
25 13 74 21 110 8 36 23 115 34 175 11 61 25 137 32 170 6 33 17 94 24 135 15
92 42 233 61 319 24 110 48 115 59 11z"/>
<path d="M37109 18474 c-11 -13 -10 -22 8 -57 28 -54 113 -236 113 -242 0 -3
24 -55 105 -230 13 -28 42 -92 64 -143 22 -50 54 -120 70 -154 16 -35 43 -93
60 -131 17 -37 49 -108 71 -157 22 -49 54 -120 71 -157 17 -38 47 -102 65
-143 19 -41 44 -95 55 -120 12 -25 27 -58 34 -75 8 -16 35 -74 60 -128 25 -54
45 -100 45 -102 0 -2 18 -43 41 -92 23 -48 54 -115 69 -148 15 -33 40 -85 54
-116 14 -31 26 -59 26 -62 0 -6 42 -98 115 -252 18 -38 51 -113 74 -166 l41
-96 0 -996 c0 -547 3 -1002 6 -1011 5 -14 54 -16 445 -16 l439 0 10 26 c6 16
10 402 10 1032 0 835 2 1011 14 1027 7 11 17 31 21 45 4 14 23 56 41 94 19 37
34 72 34 76 0 5 21 53 46 107 44 95 61 131 104 228 11 25 29 65 40 90 11 25
29 66 41 93 12 26 34 74 49 107 16 33 40 87 53 120 14 33 44 99 66 147 23 48
41 89 41 93 0 3 18 45 41 93 41 87 70 151 94 207 6 17 22 50 34 75 11 25 21
48 21 52 0 4 16 42 36 85 20 43 44 96 54 118 10 22 38 83 63 135 25 52 56 124
70 160 14 36 35 83 46 105 10 22 47 103 81 180 34 77 75 168 91 203 17 35 29
73 27 85 l-3 22 -459 3 c-506 2 -492 4 -513 -59 -10 -31 -28 -77 -120 -309
-17 -41 -61 -154 -98 -250 -38 -96 -72 -180 -77 -186 -4 -6 -14 -31 -22 -55
-8 -24 -28 -80 -46 -124 -18 -44 -40 -100 -50 -125 -23 -58 -59 -147 -75 -185
-7 -16 -51 -127 -97 -245 -47 -118 -91 -215 -98 -215 -13 0 -60 81 -60 105 0
9 -6 24 -14 35 -7 11 -19 37 -26 58 -7 22 -18 51 -26 65 -8 15 -14 34 -14 42
0 9 -6 24 -14 35 -7 11 -19 37 -26 58 -7 22 -18 51 -26 65 -8 15 -14 32 -14
37 0 6 -16 49 -36 95 -19 47 -80 198 -135 335 -108 269 -132 328 -159 390 -10
22 -27 67 -40 100 -12 33 -28 74 -36 90 -31 71 -64 155 -64 166 0 7 -11 27
-26 46 l-25 33 -473 0 c-421 0 -475 -2 -487 -16z"/>
<path d="M41431 18476 c-16 -19 -16 -4763 0 -4782 16 -19 2468 -21 2487 -2 9
9 12 110 12 393 0 283 -3 384 -12 393 -9 9 -198 12 -791 12 -517 0 -785 3
-798 10 -18 10 -19 28 -19 658 0 491 3 651 12 660 9 9 183 12 723 12 683 0
713 1 729 19 15 17 16 52 14 375 -3 304 -5 358 -18 366 -9 6 -296 10 -725 10
-540 0 -714 3 -723 12 -9 9 -12 139 -12 525 0 500 1 514 20 533 20 20 33 20
778 20 576 0 761 3 770 12 9 9 12 108 12 384 0 325 -2 375 -16 388 -14 14
-139 16 -1223 16 -1008 0 -1210 -2 -1220 -14z"/>
<path d="M45042 18478 c-17 -17 -17 -4769 0 -4786 18 -18 833 -17 845 1 4 6
10 485 13 1062 l5 1050 230 0 c564 0 778 -72 888 -297 20 -41 41 -101 46 -134
6 -32 15 -86 20 -119 6 -33 15 -305 21 -605 10 -571 23 -741 67 -900 l18 -65
518 -3 c591 -3 550 -10 477 88 -76 102 -125 235 -154 415 -17 105 -20 159 -36
660 -15 443 -43 675 -96 792 -8 17 -14 36 -14 42 0 18 -67 150 -105 207 -40
61 -155 171 -216 207 -24 14 -74 41 -112 59 -37 17 -66 36 -64 41 2 6 32 20
68 32 199 67 365 222 434 405 52 138 66 190 85 304 19 113 21 156 17 350 -8
341 -42 502 -153 711 -59 112 -167 229 -269 292 -66 41 -109 63 -142 73 -21 7
-42 16 -48 20 -14 10 -167 55 -250 74 -136 31 -302 36 -1190 36 -680 0 -894
-3 -903 -12z m1583 -677 c22 -5 68 -16 102 -24 35 -8 69 -19 75 -24 7 -6 25
-13 39 -16 63 -15 156 -113 203 -212 56 -119 72 -404 35 -593 -52 -258 -147
-360 -396 -423 -82 -21 -110 -23 -433 -23 l-345 -1 -3 655 c-1 360 0 661 3
669 5 11 61 13 343 8 185 -3 355 -11 377 -16z"/>
</g>
</svg>
