<?xml version="1.0" standalone="no"?>
<!DOCTYPE svg PUBLIC "-//W3C//DTD SVG 20010904//EN"
 "http://www.w3.org/TR/2001/REC-SVG-20010904/DTD/svg10.dtd">
<svg version="1.0" xmlns="http://www.w3.org/2000/svg"
 width="1280.000000pt" height="768.000000pt" viewBox="0 0 1280.000000 768.000000"
 preserveAspectRatio="xMidYMid meet">

<g transform="translate(0.000000,768.000000) scale(0.100000,-0.100000)"
fill="#000000" stroke="none">
<path d="M6412 4742 c-103 -37 -165 -115 -199 -249 -26 -102 -26 -634 0 -743
40 -172 135 -259 299 -276 127 -13 265 29 323 98 59 69 94 189 95 321 l0 47
-115 0 -115 0 0 -62 c-1 -122 -28 -182 -94 -207 -29 -11 -44 -12 -76 -2 -54
16 -78 54 -90 142 -13 92 -13 541 -1 628 15 102 60 145 139 138 72 -7 108 -55
119 -157 l6 -60 110 0 110 0 -6 75 c-8 90 -37 177 -75 225 -16 19 -55 49 -87
65 -54 28 -68 30 -174 33 -93 2 -126 -1 -169 -16z"/>
<path d="M4300 4114 l0 -616 243 4 c229 3 245 5 295 27 64 29 124 94 147 159
20 56 30 197 21 275 -10 76 -58 154 -115 184 -43 22 -43 23 -19 32 65 25 108
124 108 251 0 149 -51 240 -156 280 -49 18 -78 20 -289 20 l-235 0 0 -616z
m396 433 c38 -20 54 -60 54 -136 0 -131 -36 -171 -152 -171 l-68 0 0 166 0
167 68 -5 c37 -3 81 -12 98 -21z m18 -500 c45 -30 60 -73 61 -172 0 -73 -4
-97 -20 -125 -29 -49 -76 -70 -157 -70 -64 0 -68 1 -68 23 0 12 -1 100 -3 196
l-2 173 81 -4 c54 -3 91 -10 108 -21z"/>
<path d="M5220 4630 l0 -100 130 0 130 0 0 -515 0 -515 115 0 115 0 0 515 0
514 133 3 132 3 3 98 3 97 -381 0 -380 0 0 -100z"/>
<path d="M7752 4118 l3 -613 323 -3 322 -2 0 105 0 105 -210 0 -210 0 2 510 3
510 -118 0 -117 0 2 -612z"/>
<path d="M8847 4708 c-20 -82 -267 -1189 -267 -1197 0 -7 39 -11 114 -11 101
0 115 2 120 18 2 9 12 58 21 107 9 50 21 111 27 138 l10 47 128 0 c114 0 129
-2 134 -17 3 -10 17 -80 32 -155 l27 -138 124 0 c67 0 123 3 123 8 -1 4 -63
279 -138 612 l-138 605 -156 3 c-155 2 -156 2 -161 -20z m207 -473 c24 -126
42 -233 39 -237 -2 -5 -44 -8 -94 -8 -102 0 -97 -7 -75 103 8 40 27 137 41
217 29 161 37 193 42 170 2 -8 23 -118 47 -245z"/>
<path d="M9500 4726 c0 -3 72 -163 160 -357 l160 -351 0 -259 0 -259 115 0
115 0 0 264 0 263 155 348 c85 190 155 349 155 351 0 2 -55 4 -122 4 l-123 0
-89 -226 c-48 -124 -90 -223 -92 -221 -3 2 -44 103 -92 223 l-88 219 -127 3
c-70 1 -127 0 -127 -2z"/>
<path d="M10600 4115 l0 -615 323 2 322 3 3 103 3 102 -211 0 -210 0 0 170 0
170 190 0 190 0 0 100 0 100 -190 0 -191 0 3 138 3 137 201 3 202 2 1 100 2
100 -321 0 -320 0 0 -615z"/>
<path d="M11530 4115 l0 -615 110 0 110 0 0 275 0 275 53 0 c79 0 169 -18 197
-38 47 -35 53 -64 61 -272 4 -107 11 -205 14 -217 7 -22 11 -23 141 -23 l133
0 -26 49 c-23 45 -26 66 -33 223 -5 100 -15 193 -24 221 -18 61 -59 114 -102
134 l-33 16 38 18 c21 9 49 32 63 50 44 60 53 97 52 209 0 125 -23 191 -86
244 -67 58 -119 66 -411 66 l-257 0 0 -615z m450 429 c57 -23 75 -60 75 -154
-1 -135 -44 -170 -210 -170 l-95 0 0 170 0 170 95 0 c64 0 108 -5 135 -16z"/>
</g>
</svg>
