<?xml version="1.0" standalone="no"?>
<!DOCTYPE svg PUBLIC "-//W3C//DTD SVG 20010904//EN"
 "http://www.w3.org/TR/2001/REC-SVG-20010904/DTD/svg10.dtd">
<svg version="1.0" xmlns="http://www.w3.org/2000/svg"
 width="192.000000pt" height="192.000000pt" viewBox="0 0 192.000000 192.000000"
 preserveAspectRatio="xMidYMid meet">

<g transform="translate(0.000000,192.000000) scale(0.100000,-0.100000)"
fill="#000000" stroke="none">
<path d="M822 1574 c-81 -42 -151 -80 -157 -85 -5 -5 47 -9 129 -9 136 0 139
0 192 31 30 17 52 35 49 40 -4 5 0 9 7 9 9 1 7 5 -5 14 -9 7 -22 27 -28 45 -6
17 -17 31 -25 31 -8 0 -81 -34 -162 -76z"/>
<path d="M1264 1445 c4 -11 37 -66 73 -123 65 -101 77 -113 156 -146 35 -14
38 -14 44 2 3 9 15 30 26 45 10 15 16 34 13 42 -2 7 -60 46 -128 86 -68 39
-138 81 -157 92 -33 20 -34 20 -27 2z"/>
<path d="M336 1319 c-3 -17 -6 -90 -6 -161 0 -162 10 -165 88 -26 53 96 54 98
47 158 l-7 60 -58 0 c-56 0 -58 -1 -64 -31z"/>
<path d="M1468 825 c-69 -118 -76 -143 -62 -214 6 -30 8 -31 65 -31 l58 0 6
53 c3 28 5 110 3 181 l-3 128 -67 -117z"/>
<path d="M341 742 c-6 -11 -7 -22 -4 -26 3 -3 2 -6 -4 -6 -5 0 -15 -12 -22
-27 -10 -21 -9 -28 1 -35 36 -24 227 -138 256 -153 19 -9 36 -15 38 -13 2 3
-28 55 -67 117 -54 85 -80 116 -108 130 -62 32 -79 34 -90 13z"/>
<path d="M1016 453 c-87 -4 -117 -15 -185 -69 -2 -2 2 -10 9 -19 7 -8 21 -30
30 -48 10 -17 24 -31 32 -29 25 6 253 124 268 138 13 13 13 16 0 24 -8 5 -26
9 -40 8 -14 -1 -65 -4 -114 -5z"/>
</g>
</svg>
