<?xml version="1.0" standalone="no"?>
<!DOCTYPE svg PUBLIC "-//W3C//DTD SVG 20010904//EN"
 "http://www.w3.org/TR/2001/REC-SVG-20010904/DTD/svg10.dtd">
<svg version="1.0" xmlns="http://www.w3.org/2000/svg"
 width="1580.000000pt" height="823.000000pt" viewBox="0 0 1580.000000 823.000000"
 preserveAspectRatio="xMidYMid meet">

<g transform="translate(0.000000,823.000000) scale(0.100000,-0.100000)"
fill="#000000" stroke="none">
<path d="M2795 4939 c-101 -53 -329 -181 -339 -190 -6 -5 57 -9 155 -9 l164 0
61 38 c77 47 95 62 88 73 -3 5 -14 9 -25 9 -11 0 -19 7 -19 16 0 9 -5 12 -12
8 -8 -5 -9 -2 -5 11 4 9 2 24 -4 31 -6 8 -9 21 -5 29 7 19 11 20 -59 -16z
m115 -99 c0 -5 -5 -10 -11 -10 -5 0 -7 5 -4 10 3 6 8 10 11 10 2 0 4 -4 4 -10z"/>
<path d="M3153 4713 c29 -53 144 -245 159 -266 11 -15 51 -43 89 -62 76 -39
87 -42 69 -20 -11 13 -10 14 4 9 10 -4 16 -1 16 7 0 8 10 30 22 49 12 19 23
40 24 47 2 13 -43 43 -249 167 -125 75 -142 83 -134 69z"/>
<path d="M2077 4568 c-9 -52 -12 -366 -4 -375 5 -4 15 -3 23 2 17 11 131 211
134 235 5 39 -1 174 -8 164 -10 -14 -110 -18 -127 -4 -10 8 -14 3 -18 -22z"/>
<path d="M7853 4435 c-72 -20 -126 -56 -168 -113 -45 -61 -65 -128 -65 -219 0
-164 89 -281 240 -313 118 -25 235 1 313 70 l37 32 0 129 0 130 -87 -3 -88 -3
0 -40 c0 -39 1 -40 38 -43 l37 -3 0 -63 c0 -76 -11 -89 -93 -110 -66 -17 -149
-8 -200 22 -53 30 -91 103 -95 182 -2 38 1 84 7 103 48 143 200 200 344 128
l62 -30 27 26 c16 15 28 30 28 34 0 17 -92 70 -146 84 -71 18 -122 18 -191 0z"/>
<path d="M13215 4441 c-118 -29 -180 -116 -154 -216 21 -80 78 -114 242 -145
56 -11 113 -28 127 -38 35 -27 46 -63 30 -102 -39 -94 -242 -94 -330 0 l-29
31 -35 -23 c-20 -13 -36 -27 -36 -31 0 -4 22 -30 49 -57 64 -64 128 -84 250
-78 151 7 231 67 239 178 6 87 -22 133 -101 170 -34 16 -101 35 -150 44 -109
18 -151 40 -155 84 -2 17 1 40 7 50 28 52 158 69 234 31 23 -12 45 -26 48 -31
8 -13 37 -3 69 22 l25 20 -39 35 c-22 20 -62 42 -90 50 -52 16 -149 18 -201 6z"/>
<path d="M4825 4417 c-3 -7 -4 -149 -3 -317 l3 -305 48 0 48 0 0 232 c0 128 3
234 8 237 4 3 54 -60 110 -140 56 -79 108 -144 114 -144 7 1 59 66 117 146
l105 145 5 -238 5 -238 50 0 50 0 3 318 2 317 -62 0 -63 0 -100 -142 c-55 -78
-104 -141 -110 -141 -5 -1 -55 63 -110 141 l-100 141 -58 1 c-37 0 -59 -4 -62
-13z"/>
<path d="M6352 4383 l3 -48 231 -3 232 -2 4 42 c3 24 3 46 1 51 -2 4 -110 7
-239 7 l-235 0 3 -47z"/>
<path d="M9106 4123 c-76 -169 -141 -314 -143 -320 -4 -9 9 -13 45 -13 28 0
54 6 60 13 5 6 37 75 70 152 91 212 153 349 160 357 7 7 132 -260 132 -281 0
-7 -28 -11 -80 -11 -45 0 -80 -4 -80 -10 0 -5 8 -25 17 -44 l16 -35 86 -3 86
-3 32 -67 33 -68 50 0 c27 0 50 4 50 8 0 11 -51 128 -178 407 l-100 220 -59 3
-58 3 -139 -308z"/>
<path d="M10280 4427 c0 -3 24 -60 176 -425 l88 -213 55 3 56 3 127 305 c70
168 127 311 127 318 1 8 -16 12 -52 12 l-54 0 -97 -247 c-54 -137 -101 -251
-105 -255 -4 -4 -44 88 -90 205 -46 116 -92 231 -102 255 l-18 42 -55 0 c-31
0 -56 -1 -56 -3z"/>
<path d="M11712 4113 l3 -318 44 -3 c28 -2 47 1 52 10 5 7 9 131 9 276 l0 262
110 0 c141 0 171 -11 195 -73 14 -37 15 -52 6 -80 -18 -52 -43 -69 -113 -76
l-63 -6 -3 -41 c-3 -45 3 -55 127 -192 l74 -82 53 0 c30 0 54 5 54 10 0 6 -43
57 -96 115 l-96 105 27 10 c14 5 30 10 35 10 5 0 25 14 44 30 104 91 80 272
-45 337 -39 22 -54 23 -231 23 l-188 0 2 -317z"/>
<path d="M14340 4380 l0 -50 235 0 235 0 0 50 0 50 -235 0 -235 0 0 -50z"/>
<path d="M6350 3975 l0 -185 238 2 237 3 3 47 3 48 -188 2 -188 3 0 85 0 85
178 3 177 2 0 45 0 45 -230 0 -230 0 0 -185z"/>
<path d="M14340 3975 l0 -185 235 0 235 0 0 50 0 50 -182 2 -183 3 0 85 0 84
162 -2 c89 -1 169 1 178 4 10 4 15 20 15 50 l0 44 -230 0 -230 0 0 -185z"/>
<path d="M3405 3955 l-80 -140 0 -82 c0 -72 11 -117 21 -88 3 7 29 8 68 5 l65
-5 6 70 c3 38 5 140 3 225 l-3 155 -80 -140z"/>
<path d="M2093 3847 c4 -12 2 -29 -4 -37 -8 -12 -9 -10 -4 7 3 12 1 25 -6 29
-7 4 -9 3 -5 -4 10 -16 -38 -99 -55 -94 -18 5 23 -22 216 -139 88 -54 161 -94
163 -90 2 5 -34 70 -80 146 -79 130 -86 138 -143 170 -72 41 -89 43 -82 12z"/>
<path d="M2711 3448 c-35 -23 -58 -44 -52 -46 6 -2 9 -7 6 -12 -3 -4 2 -13 10
-20 8 -7 15 -20 15 -29 1 -28 36 -62 57 -54 10 3 84 42 166 86 107 59 147 85
147 99 0 17 -11 18 -142 18 l-143 0 -64 -42z"/>
</g>
</svg>
