<?xml version="1.0" standalone="no"?>
<!DOCTYPE svg PUBLIC "-//W3C//DTD SVG 20010904//EN"
 "http://www.w3.org/TR/2001/REC-SVG-20010904/DTD/svg10.dtd">
<svg version="1.0" xmlns="http://www.w3.org/2000/svg"
 width="1643.000000pt" height="1510.000000pt" viewBox="0 0 1643.000000 1510.000000"
 preserveAspectRatio="xMidYMid meet">

<g transform="translate(0.000000,1510.000000) scale(0.100000,-0.100000)"
fill="#000000" stroke="none">
<path d="M9023 12593 c-20 -7 -15 -23 7 -23 11 0 20 4 20 9 0 13 -12 19 -27
14z"/>
<path d="M8870 12516 c-41 -24 -129 -71 -195 -106 -66 -34 -131 -71 -144 -81
-13 -11 -27 -19 -31 -19 -5 0 -61 -30 -127 -68 -65 -37 -129 -73 -143 -80 -14
-6 -32 -16 -40 -22 -26 -17 -331 -190 -335 -190 -2 0 -104 -58 -227 -128 -123
-71 -230 -131 -238 -135 -8 -4 -33 -18 -55 -32 -22 -14 -47 -28 -55 -32 -8 -4
-126 -71 -262 -149 -136 -78 -257 -146 -268 -149 -13 -4 -20 -14 -18 -23 4
-23 76 -24 1098 -14 l835 8 50 28 c69 37 101 56 285 169 89 53 164 97 169 97
4 0 16 9 26 20 10 11 24 20 31 20 7 0 25 10 41 23 32 25 61 44 83 54 8 3 28
17 43 30 16 13 33 23 39 23 5 0 27 13 47 28 20 16 44 32 54 35 9 4 17 11 17
17 0 17 -25 11 -38 -10 -7 -11 -20 -20 -30 -20 -9 0 -26 -7 -36 -15 -28 -21
-54 -19 -61 6 -4 11 -9 18 -12 15 -10 -9 -33 15 -33 34 0 11 11 21 28 25 l27
7 -23 11 c-18 8 -25 7 -37 -9 -14 -18 -14 -17 -15 12 0 53 -12 94 -26 94 -8 0
-14 9 -14 20 0 13 -5 18 -15 14 -12 -5 -15 3 -15 35 0 23 -4 41 -10 41 -5 0
-10 9 -10 20 0 11 -4 20 -10 20 -5 0 -10 7 -10 15 0 8 -9 15 -20 15 -13 0 -20
7 -20 20 0 11 -7 20 -15 20 -8 0 -15 9 -15 20 0 11 -4 20 -10 20 -5 0 -10 7
-10 15 0 8 -7 15 -16 15 -13 0 -15 7 -10 30 7 38 -3 91 -18 89 -6 -1 -20 -1
-31 0 -19 2 -19 3 3 18 12 8 22 22 22 29 0 22 -40 16 -61 -8 -16 -20 -18 -21
-19 -5 0 9 4 25 9 35 5 9 12 25 15 35 3 9 15 17 26 17 11 0 20 7 20 15 0 8 -4
15 -9 15 -5 0 -14 -7 -21 -15 -17 -20 -33 -19 -48 5 -17 27 -26 25 -112 -24z"/>
<path d="M9337 11974 c-4 -4 -4 -10 -2 -14 6 -10 45 0 45 11 0 10 -33 12 -43
3z"/>
<path d="M9396 11854 c-10 -26 -7 -34 12 -34 18 0 52 29 52 43 0 15 -58 6 -64
-9z"/>
<path d="M10730 11201 c0 -7 200 -355 327 -569 12 -20 27 -46 32 -57 6 -11 22
-38 36 -60 13 -22 31 -53 40 -70 9 -16 21 -39 28 -50 29 -47 151 -253 251
-425 235 -404 270 -455 326 -484 35 -18 106 -58 230 -129 111 -65 135 -78 325
-176 66 -35 124 -67 129 -72 6 -5 18 -9 27 -9 10 0 24 -6 31 -13 33 -33 76
-30 58 4 -6 10 -12 44 -13 74 -3 50 -1 55 17 55 35 0 48 14 41 43 -4 15 -10
25 -14 23 -12 -8 -34 11 -27 23 11 17 43 13 51 -6 6 -17 7 -16 17 2 6 11 17
24 25 28 7 4 13 24 13 42 0 19 5 35 10 35 6 0 10 9 10 21 0 11 5 17 10 14 6
-3 10 3 10 14 0 12 7 21 15 21 9 0 15 9 15 21 0 16 5 20 19 16 16 -4 21 4 31
54 7 33 17 59 21 59 5 0 9 9 9 20 0 11 7 20 15 20 8 0 15 5 15 10 0 6 7 10 15
10 25 0 17 25 -15 43 -30 18 -41 47 -17 47 6 0 25 -7 41 -15 37 -20 36 -20 37
18 0 17 3 26 6 20 2 -7 9 -13 14 -13 5 0 3 14 -6 30 -11 21 -23 30 -40 30 -14
0 -25 5 -25 11 0 20 73 2 91 -23 16 -20 20 -21 43 -8 32 17 33 27 4 40 -13 6
-36 19 -53 30 -16 11 -41 25 -55 32 -14 7 -43 27 -65 44 -22 17 -52 38 -67 45
-15 8 -57 32 -93 54 -101 61 -124 74 -251 150 -64 39 -133 80 -153 93 -20 12
-49 29 -66 37 -16 9 -104 60 -195 115 -91 54 -291 172 -444 262 -355 208 -353
206 -406 236 -25 14 -57 33 -72 43 -14 11 -30 19 -34 19 -4 0 -15 6 -23 14 -9
7 -41 27 -71 43 -30 17 -90 51 -133 77 -78 46 -97 54 -97 37z"/>
<path d="M4657 10498 c-10 -124 -29 -1587 -25 -1947 l3 -315 32 -19 c18 -10
54 -20 80 -22 26 -1 57 -4 67 -6 20 -4 89 104 253 399 32 57 67 119 78 137 11
19 30 52 42 74 31 55 264 466 333 587 32 55 64 120 71 145 14 50 14 463 -1
704 -8 137 -26 245 -41 245 -4 0 -10 -18 -14 -40 l-7 -40 -418 0 -417 0 -7 78
c-10 110 -22 118 -29 20z"/>
<path d="M13043 9810 c-13 -5 -23 -12 -23 -15 0 -11 37 -4 56 10 22 17 4 20
-33 5z"/>
<path d="M12595 9040 c3 -5 10 -10 16 -10 5 0 9 5 9 10 0 6 -7 10 -16 10 -8 0
-12 -4 -9 -10z"/>
<path d="M12629 7638 c-21 -42 -350 -619 -369 -648 -6 -8 -17 -28 -25 -45 -9
-16 -20 -37 -25 -45 -10 -15 -247 -430 -378 -662 -40 -71 -72 -130 -72 -133 0
-3 -9 -18 -19 -33 -39 -56 -44 -117 -37 -451 8 -350 20 -506 41 -527 11 -11
14 -11 19 2 3 9 6 27 6 40 l0 24 419 0 419 0 6 -22 c3 -13 6 -43 7 -68 1 -25
4 -58 8 -75 6 -26 8 -27 14 -10 22 67 42 2685 20 2692 -7 2 -22 -15 -34 -39z"/>
<path d="M4775 6450 c3 -5 10 -10 16 -10 5 0 9 5 9 10 0 6 -7 10 -16 10 -8 0
-12 -4 -9 -10z"/>
<path d="M4810 6426 c0 -7 14 -25 30 -41 17 -16 30 -32 30 -37 0 -15 -45 -8
-75 12 -52 34 -62 18 -20 -32 20 -24 23 -33 14 -44 -6 -8 -20 -14 -30 -14 -34
0 -30 -19 11 -45 23 -15 40 -33 40 -44 0 -23 -39 -36 -47 -15 -9 25 -41 36
-65 23 l-22 -12 27 -23 c33 -28 33 -29 2 -58 -14 -13 -28 -37 -31 -55 -4 -17
-13 -31 -20 -31 -8 0 -14 -9 -14 -20 0 -11 -9 -29 -20 -40 -11 -11 -20 -26
-20 -34 0 -9 -8 -12 -25 -8 -18 3 -25 0 -25 -12 0 -14 -11 -20 -32 -18 -13 2
-30 -28 -24 -43 8 -23 25 -18 56 15 25 27 50 39 50 24 0 -11 -32 -104 -36
-104 -3 0 -20 6 -38 14 -22 9 -38 10 -50 4 -20 -11 -12 -26 20 -38 31 -12 35
-60 4 -60 -11 0 -30 -10 -41 -21 -21 -21 -24 -21 -74 -7 -50 14 -52 14 -47 -5
3 -10 18 -24 33 -29 16 -5 29 -13 29 -17 0 -4 15 -15 33 -24 17 -10 44 -25 59
-35 14 -9 55 -34 90 -55 34 -21 95 -58 133 -82 39 -24 95 -59 125 -76 30 -18
132 -78 225 -134 94 -56 220 -130 280 -165 61 -35 117 -69 125 -76 8 -6 39
-25 68 -40 29 -16 68 -38 87 -49 18 -11 149 -87 290 -170 140 -82 270 -158
288 -168 17 -10 46 -26 62 -37 17 -10 64 -38 105 -62 41 -24 82 -47 91 -53 42
-26 99 -55 109 -55 14 0 -7 40 -146 276 -149 254 -489 835 -655 1119 -71 121
-145 239 -164 261 -30 37 -153 116 -305 196 -19 11 -80 43 -135 73 -55 29
-132 70 -171 89 -39 20 -87 47 -106 59 -42 29 -78 40 -78 23z m69 -165 c11 -7
10 -11 -5 -19 -21 -11 -54 1 -54 18 0 12 40 13 59 1z"/>
<path d="M4305 5680 c3 -5 8 -10 11 -10 2 0 4 5 4 10 0 6 -5 10 -11 10 -5 0
-7 -4 -4 -10z"/>
<path d="M9270 4249 c-333 -4 -619 -11 -635 -15 -17 -5 -135 -72 -263 -149
-128 -77 -249 -149 -270 -161 -20 -11 -64 -38 -96 -60 -97 -65 -110 -73 -138
-89 -16 -9 -28 -20 -28 -25 0 -12 50 -14 50 -2 0 4 4 13 8 20 13 20 62 -2 62
-28 0 -11 5 -20 10 -20 6 0 10 -9 10 -21 0 -11 5 -17 10 -14 6 3 10 -3 10 -14
0 -12 5 -21 10 -21 6 0 10 -9 10 -20 0 -13 7 -20 20 -20 11 0 20 -7 20 -15 0
-8 7 -15 15 -15 11 0 15 -11 15 -40 0 -22 5 -40 10 -40 6 0 10 -9 10 -20 0
-11 5 -20 10 -20 6 0 10 -7 10 -16 0 -9 9 -18 20 -21 11 -3 20 -12 20 -19 0
-8 7 -14 15 -14 10 0 16 -16 21 -51 5 -38 12 -53 25 -56 11 -3 19 -12 19 -19
0 -8 5 -14 10 -14 21 0 9 -30 -15 -36 -14 -3 -25 -9 -25 -13 0 -4 11 -13 25
-19 14 -7 25 -20 25 -31 0 -37 56 -42 70 -6 5 14 16 25 24 25 29 0 25 -17 -9
-46 -52 -43 -47 -59 18 -54 15 1 27 -1 27 -3 0 -3 -14 -19 -30 -37 -26 -28
-35 -31 -62 -26 -31 6 -31 6 -13 -14 19 -21 50 -27 60 -11 3 5 33 24 68 41 34
18 94 49 132 70 39 21 84 46 100 54 17 9 48 26 70 39 22 13 76 43 120 67 44
23 131 71 193 106 277 158 341 193 397 224 33 18 164 92 290 165 127 72 292
166 368 209 76 43 150 88 164 100 l27 23 -22 51 c-12 28 -22 66 -22 85 0 23
-6 37 -16 41 -9 3 -91 5 -182 4 -92 -1 -439 -5 -772 -9z m-948 -1047 c9 -9 6
-12 -15 -12 -17 0 -27 5 -27 14 0 17 25 15 42 -2z m133 -111 c-3 -6 -14 -11
-23 -11 -15 1 -15 2 2 15 21 16 32 13 21 -4z"/>
</g>
</svg>
