<?xml version="1.0" standalone="no"?>
<!DOCTYPE svg PUBLIC "-//W3C//DTD SVG 20010904//EN"
 "http://www.w3.org/TR/2001/REC-SVG-20010904/DTD/svg10.dtd">
<svg version="1.0" xmlns="http://www.w3.org/2000/svg"
 width="5000.000000pt" height="972.000000pt" viewBox="0 0 5000.000000 972.000000"
 preserveAspectRatio="xMidYMid meet">

<g transform="translate(0.000000,972.000000) scale(0.100000,-0.100000)"
fill="#000000" stroke="none">
<path d="M4354 7232 c-83 -43 -160 -81 -172 -87 -19 -9 -173 -93 -307 -167
-27 -15 -77 -42 -110 -59 -33 -17 -89 -48 -125 -69 -70 -40 -72 -41 -355 -200
-104 -58 -190 -112 -190 -120 0 -7 11 -16 25 -20 14 -3 273 -2 576 2 l550 7
60 31 c76 39 124 70 149 93 11 10 41 30 67 43 26 13 49 28 53 34 4 6 33 24 66
41 64 32 70 48 25 60 -15 4 -38 19 -52 34 -19 21 -21 27 -9 31 9 4 21 2 28 -4
22 -18 117 -50 122 -41 9 14 -26 59 -45 59 -33 0 -50 12 -50 34 0 12 -9 27
-20 34 -11 7 -20 20 -20 30 0 9 -10 22 -22 27 -23 11 -43 61 -27 71 27 16 -18
105 -60 119 -19 6 -19 7 -3 38 9 17 24 37 32 44 13 11 11 12 -10 12 -14 0 -93
-35 -176 -77z m96 -50 c0 -14 -11 -21 -26 -15 -21 8 -17 23 6 23 11 0 20 -4
20 -8z"/>
<path d="M5577 6434 c-7 -7 27 -79 48 -104 7 -8 27 -42 45 -75 54 -103 245
-423 404 -680 44 -71 94 -143 110 -158 16 -16 75 -51 130 -79 56 -28 115 -58
131 -66 17 -8 41 -24 54 -34 13 -10 31 -18 41 -18 10 0 29 -9 43 -20 14 -11
36 -20 49 -20 12 0 36 -9 53 -20 21 -14 33 -16 42 -8 19 16 16 27 -7 21 -14
-4 -20 0 -20 11 0 9 5 16 11 16 5 0 8 4 5 9 -3 4 4 19 15 32 12 13 27 36 35
52 8 15 19 27 24 27 6 0 10 15 10 33 0 38 28 101 59 134 12 12 21 26 21 31 0
5 11 14 25 20 14 7 31 24 37 38 11 23 10 28 -7 40 -11 7 -29 22 -40 33 -19 19
-174 123 -232 156 -49 28 -100 59 -200 121 -92 57 -207 127 -307 184 -57 33
-232 137 -276 164 -19 12 -44 27 -55 33 -11 6 -60 36 -110 66 -94 57 -127 72
-138 61z"/>
<path d="M1807 6030 c-29 -156 -44 -445 -53 -1002 -7 -399 -7 -403 14 -421 30
-27 94 -34 112 -12 18 21 80 126 146 245 26 47 75 135 109 195 133 235 188
336 201 374 14 40 13 68 -12 461 -4 58 -11 113 -16 124 -9 16 -12 15 -36 -18
-14 -20 -29 -36 -33 -36 -4 0 -16 14 -27 32 l-21 32 -18 -32 c-22 -38 -36 -40
-51 -8 -9 20 -17 23 -56 22 -32 -2 -53 -9 -69 -24 l-24 -22 -18 20 c-23 25
-28 25 -40 -2 -18 -42 -39 -33 -59 26 -11 31 -22 53 -27 51 -4 -3 -9 3 -11 12
-2 11 -7 4 -11 -17z"/>
<path d="M41045 5480 c-130 -21 -209 -46 -328 -106 -138 -69 -197 -128 -282
-284 -10 -19 -24 -66 -31 -105 -52 -289 57 -524 298 -638 52 -25 114 -51 139
-57 24 -7 49 -16 54 -20 11 -9 127 -36 220 -50 75 -12 243 -39 315 -51 30 -5
66 -14 80 -20 14 -6 52 -19 86 -28 84 -24 183 -96 217 -160 23 -41 27 -63 29
-132 2 -71 -1 -91 -21 -129 -75 -145 -184 -209 -401 -236 -232 -28 -417 1
-588 94 -61 34 -195 155 -243 221 l-25 34 -75 -43 c-70 -41 -155 -103 -171
-125 -4 -5 -8 -15 -8 -21 0 -24 104 -166 158 -215 72 -65 181 -149 196 -149 6
0 25 -7 41 -16 130 -68 355 -114 564 -114 156 0 390 34 450 65 17 8 36 15 43
15 18 0 126 57 168 89 19 14 44 33 57 41 40 27 132 150 166 223 42 91 62 210
53 315 -10 102 -25 169 -47 212 -11 19 -19 39 -19 45 -1 28 -117 144 -193 192
-45 29 -86 53 -92 53 -5 0 -23 7 -40 16 -82 44 -226 80 -540 134 -66 12 -133
23 -150 26 -63 12 -172 47 -230 74 -111 53 -150 118 -143 239 6 117 65 192
202 259 68 34 206 62 301 62 127 0 315 -48 421 -107 23 -13 70 -49 104 -79 34
-30 67 -53 74 -51 12 5 203 131 224 148 30 25 13 60 -71 142 -90 88 -156 133
-265 177 -67 27 -95 34 -258 65 -106 20 -299 18 -439 -5z"/>
<path d="M22240 5475 c-320 -40 -603 -216 -774 -485 -16 -25 -37 -57 -48 -72
-10 -15 -18 -30 -18 -33 0 -3 -9 -24 -19 -48 -35 -75 -61 -150 -84 -242 -30
-124 -32 -456 -3 -580 79 -341 262 -599 521 -735 174 -91 488 -158 685 -144
119 7 301 39 337 57 16 8 44 18 63 22 78 17 294 160 395 261 l55 56 0 448 c0
404 -2 449 -17 461 -13 11 -72 14 -288 14 -216 0 -275 -3 -288 -14 -14 -11
-17 -35 -17 -150 0 -93 4 -141 12 -149 8 -8 50 -12 123 -12 73 0 115 -4 123
-12 15 -15 17 -420 2 -449 -13 -24 -110 -88 -183 -122 -112 -51 -218 -71 -377
-71 -80 1 -163 6 -185 12 -22 6 -65 17 -96 25 -80 20 -205 84 -264 136 -225
199 -320 514 -254 842 11 57 26 118 34 134 57 130 81 175 124 229 162 203 346
292 626 303 130 5 147 3 240 -22 91 -24 265 -97 297 -124 52 -44 94 -71 110
-71 18 0 79 56 165 152 53 59 49 74 -36 142 -270 214 -568 289 -961 241z"/>
<path d="M16860 5430 c-41 -10 -48 -40 -44 -183 4 -121 6 -134 26 -150 20 -17
65 -18 819 -15 592 2 801 6 810 15 17 17 18 308 1 325 -10 10 -166 13 -800 13
-433 1 -799 -2 -812 -5z"/>
<path d="M27012 5429 c-15 -6 -92 -144 -92 -166 0 -6 -41 -98 -112 -253 -41
-89 -56 -123 -93 -205 -28 -64 -54 -121 -100 -220 -21 -44 -64 -139 -96 -212
-32 -73 -63 -140 -68 -150 -6 -10 -24 -52 -42 -93 -17 -41 -48 -111 -69 -155
-61 -130 -80 -171 -80 -178 0 -4 -18 -46 -41 -94 -23 -49 -54 -115 -69 -148
-15 -33 -42 -90 -59 -127 -17 -37 -38 -86 -47 -109 -8 -24 -21 -51 -30 -60 -9
-10 -14 -30 -12 -46 l3 -28 177 -3 177 -2 35 72 c71 151 191 420 238 533 11
28 30 73 41 100 24 59 63 148 82 190 8 17 30 66 48 110 19 44 54 121 77 170
23 50 46 99 51 110 54 125 171 389 178 402 14 26 48 103 60 136 20 53 37 34
106 -123 26 -58 62 -139 82 -180 19 -41 41 -88 48 -105 43 -98 177 -399 184
-413 25 -52 60 -130 65 -147 13 -46 5 -48 -280 -47 -173 0 -273 -3 -281 -10
-19 -15 -16 -37 12 -93 13 -27 25 -54 25 -60 0 -5 12 -32 25 -60 14 -27 25
-55 25 -62 0 -6 12 -21 26 -32 26 -20 39 -21 310 -21 l284 0 27 -42 c14 -24
40 -72 56 -108 16 -36 42 -92 57 -125 16 -33 40 -85 53 -117 14 -31 34 -61 44
-66 18 -10 124 -15 270 -13 68 1 73 2 79 26 5 22 -1 41 -33 100 -6 11 -64 139
-129 285 -115 260 -160 360 -211 470 -14 30 -34 73 -43 95 -10 22 -30 67 -45
100 -15 33 -36 78 -46 100 -9 22 -33 74 -52 115 -19 41 -49 109 -67 150 -18
41 -50 112 -71 158 -21 45 -39 85 -39 88 0 3 -12 31 -26 62 -15 31 -40 85 -55
120 -16 34 -42 90 -58 125 -16 34 -41 89 -55 122 -46 104 -58 124 -76 130 -26
8 -347 12 -368 4z"/>
<path d="M30652 5428 c-17 -17 -15 -39 12 -99 12 -30 35 -83 50 -119 15 -36
34 -79 42 -97 8 -17 14 -34 14 -38 0 -3 10 -30 23 -58 24 -52 43 -98 92 -217
14 -36 30 -73 35 -82 6 -10 18 -39 29 -65 20 -51 110 -274 155 -383 30 -72 43
-103 73 -170 49 -107 73 -168 73 -181 0 -8 9 -27 20 -44 11 -16 20 -36 20 -43
0 -13 42 -116 76 -187 7 -16 36 -86 64 -155 28 -69 57 -137 65 -152 8 -14 15
-32 15 -40 0 -17 50 -111 64 -120 16 -11 334 -10 355 2 10 5 30 37 45 72 15
35 34 77 41 93 7 17 16 41 20 55 4 14 11 30 15 35 5 6 24 51 43 100 20 50 68
167 107 260 40 94 96 231 126 305 30 74 84 205 120 290 36 85 77 182 90 215
14 33 29 68 34 77 5 9 25 56 44 105 19 48 51 126 71 173 20 47 50 119 66 160
36 89 38 95 78 184 35 78 39 111 13 125 -10 5 -93 8 -185 7 -189 -3 -183 -1
-212 -81 -9 -27 -28 -72 -40 -100 -13 -27 -52 -126 -88 -220 -92 -242 -95
-250 -137 -355 -21 -52 -66 -165 -99 -250 -34 -85 -66 -164 -71 -175 -5 -11
-25 -63 -45 -115 -20 -52 -40 -104 -45 -115 -32 -72 -56 -131 -85 -212 -42
-114 -67 -166 -81 -170 -13 -4 -74 115 -74 144 0 11 -4 23 -9 29 -5 5 -26 52
-45 104 -20 52 -45 115 -55 140 -29 70 -49 121 -65 165 -7 22 -35 92 -61 155
-26 63 -54 133 -61 155 -8 22 -19 49 -24 60 -5 11 -34 85 -65 165 -30 80 -62
158 -70 173 -8 16 -15 33 -15 38 0 6 -11 35 -25 65 -14 30 -25 59 -25 64 0 5
-9 29 -19 52 -11 24 -37 88 -57 143 -20 55 -45 108 -54 119 -16 16 -38 19
-192 22 -126 3 -178 0 -186 -8z"/>
<path d="M35686 5418 c-14 -20 -16 -134 -16 -1105 0 -678 4 -1091 10 -1107
l10 -26 164 0 c143 0 165 2 170 17 4 9 6 431 6 937 0 726 3 926 13 946 l13 25
374 3 c326 2 382 1 430 -14 129 -39 201 -98 257 -212 38 -75 38 -77 38 -197
l-1 -120 -38 -68 c-46 -81 -110 -139 -191 -174 -53 -22 -78 -25 -221 -30 -89
-3 -167 -9 -173 -12 -15 -9 -23 -288 -9 -314 14 -27 323 -382 489 -562 20 -22
73 -81 118 -132 l81 -91 65 -4 c36 -1 125 -1 198 2 147 6 155 10 115 66 -24
33 -488 550 -590 658 -32 33 -58 66 -58 72 0 16 20 30 50 37 138 31 247 82
322 151 53 48 126 151 158 222 12 27 31 89 41 138 82 386 -117 746 -483 871
-100 34 -257 43 -850 44 l-476 2 -16 -23z"/>
<path d="M44930 5427 l-25 -13 2 -149 c1 -140 2 -150 23 -167 20 -16 76 -17
808 -18 701 0 789 1 810 15 21 16 22 22 22 165 0 120 -3 152 -15 164 -14 13
-112 15 -808 15 -621 1 -797 -2 -817 -12z"/>
<path d="M11462 5418 c-15 -15 -18 -2172 -3 -2212 6 -13 17 -26 27 -28 9 -1
82 -1 163 2 l146 5 5 830 c3 457 9 836 13 843 7 11 13 10 29 -5 21 -18 31 -33
104 -140 22 -33 56 -80 75 -104 19 -24 50 -66 69 -95 36 -53 145 -206 212
-298 21 -28 46 -62 55 -76 122 -174 197 -276 206 -282 17 -11 65 -10 87 2 10
5 34 33 54 62 19 29 54 78 76 108 38 53 78 108 110 154 63 92 151 212 240 333
91 122 200 273 245 338 11 16 16 18 27 7 10 -10 14 -171 16 -834 2 -581 6
-825 13 -835 9 -10 50 -13 170 -13 l159 0 10 26 c6 16 10 429 10 1109 0 972
-2 1085 -16 1099 -13 13 -46 16 -203 16 -199 0 -206 -1 -239 -51 -9 -15 -37
-55 -62 -90 -25 -34 -74 -104 -110 -155 -36 -51 -85 -120 -110 -155 -25 -34
-75 -106 -112 -158 -135 -193 -159 -227 -199 -281 -22 -30 -53 -74 -70 -97
-17 -24 -38 -43 -49 -43 -11 0 -33 21 -54 53 -20 28 -70 99 -111 157 -108 152
-130 183 -230 325 -49 70 -107 150 -128 179 -49 67 -74 102 -147 211 -34 50
-69 93 -78 97 -31 12 -387 9 -400 -4z"/>
<path d="M16836 4459 c-20 -16 -20 -27 -21 -631 0 -507 2 -618 14 -631 12 -16
82 -17 827 -17 794 0 814 0 824 19 15 28 13 304 -2 319 -9 9 -165 12 -639 12
l-628 0 -15 22 c-14 19 -16 64 -16 286 0 162 4 271 10 283 10 18 28 19 604 19
585 0 594 0 620 21 26 20 26 21 24 155 -1 90 -6 138 -14 145 -8 6 -292 11
-790 12 -707 2 -780 1 -798 -14z"/>
<path d="M44934 4470 c-12 -5 -24 -16 -28 -25 -3 -10 -6 -288 -6 -619 1 -523
3 -605 16 -624 l15 -22 815 0 814 0 9 23 c4 12 9 84 10 159 1 123 0 139 -18
157 -18 18 -39 18 -637 15 -376 -3 -625 -1 -633 5 -8 5 -17 33 -20 63 -10 86
3 531 14 535 6 2 280 4 609 6 579 2 598 3 612 21 10 15 14 54 14 153 0 126 -1
133 -22 147 -20 13 -133 15 -783 14 -418 0 -769 -4 -781 -8z"/>
<path d="M6732 4218 c-9 -12 -76 -125 -140 -238 -14 -25 -36 -62 -49 -82 -12
-21 -23 -40 -23 -44 0 -3 -44 -82 -97 -176 -97 -167 -167 -296 -226 -413 l-30
-60 6 -206 c4 -113 12 -230 18 -260 6 -30 13 -64 15 -75 3 -17 9 -20 30 -16
14 2 28 11 31 18 7 18 389 10 411 -8 19 -16 42 14 42 53 0 15 4 39 9 52 12 32
29 515 36 1033 4 342 3 413 -9 423 -10 8 -16 8 -24 -1z"/>
<path d="M1830 3462 c0 -5 7 -17 15 -28 20 -27 19 -30 -14 -44 -20 -8 -32 -21
-36 -41 -4 -19 -13 -29 -25 -29 -17 0 -34 -35 -24 -52 11 -17 33 -7 41 18 8
24 62 53 101 54 26 0 10 -30 -30 -57 -54 -36 -60 -60 -19 -74 40 -14 40 -29 1
-29 -23 0 -33 6 -40 25 -5 14 -16 25 -24 25 -23 0 -57 -34 -59 -59 -1 -17 -10
-28 -29 -35 -32 -12 -37 -39 -13 -73 19 -27 11 -49 -21 -57 -35 -9 -18 -36 40
-66 26 -13 51 -29 57 -37 6 -7 17 -13 25 -13 7 0 29 -13 47 -30 19 -16 39 -30
45 -30 6 0 32 -16 58 -36 25 -20 59 -43 75 -52 15 -10 80 -48 143 -87 64 -38
135 -81 159 -95 83 -48 142 -83 177 -105 64 -40 185 -112 200 -119 8 -3 47
-26 85 -51 70 -45 149 -85 166 -85 15 0 10 23 -16 65 -14 22 -34 58 -45 80
-12 22 -34 60 -50 85 -16 25 -48 79 -71 120 -23 41 -61 104 -83 140 -23 36
-60 96 -82 133 -106 185 -131 225 -151 252 -13 15 -23 32 -23 37 0 19 -83 120
-108 131 -15 6 -38 19 -52 28 -14 9 -65 37 -115 61 -139 69 -176 88 -225 114
-44 24 -80 31 -80 16z"/>
<path d="M1540 3052 c0 -17 30 -42 50 -42 22 0 36 18 23 31 -14 14 -73 23 -73
11z"/>
<path d="M4570 2120 l-305 -5 -50 -26 c-28 -15 -88 -53 -135 -84 -46 -31 -100
-65 -120 -75 -19 -10 -47 -29 -62 -43 -15 -14 -37 -28 -48 -32 -11 -3 -20 -11
-20 -16 0 -19 29 -67 45 -72 9 -4 15 -19 15 -36 0 -17 7 -34 15 -38 8 -5 16
-21 17 -36 1 -14 8 -29 15 -31 7 -3 13 -17 13 -31 0 -34 16 -65 49 -92 14 -12
20 -22 13 -23 -7 0 3 -16 23 -37 19 -20 35 -40 35 -45 0 -17 50 -7 117 23 37
17 75 36 83 43 8 7 27 16 42 20 15 3 33 12 40 19 7 7 60 37 118 66 165 85 253
132 280 151 14 9 33 19 42 23 9 3 96 51 192 106 96 56 179 101 184 101 5 0 28
14 50 30 37 27 42 35 42 70 0 27 -7 47 -20 60 -22 22 -15 22 -670 10z"/>
<path d="M3780 1765 c0 -19 16 -27 40 -20 30 10 24 30 -10 32 -20 1 -30 -2
-30 -12z"/>
</g>
</svg>
