<?xml version="1.0" standalone="no"?>
<!DOCTYPE svg PUBLIC "-//W3C//DTD SVG 20010904//EN"
 "http://www.w3.org/TR/2001/REC-SVG-20010904/DTD/svg10.dtd">
<svg version="1.0" xmlns="http://www.w3.org/2000/svg"
 width="1280.000000pt" height="667.000000pt" viewBox="0 0 1280.000000 667.000000"
 preserveAspectRatio="xMidYMid meet">

<g transform="translate(0.000000,667.000000) scale(0.100000,-0.100000)"
fill="#000000" stroke="none">
<path d="M2305 4027 c-11 -7 -90 -50 -175 -97 l-154 -85 133 -3 c132 -3 134
-2 185 27 28 16 50 35 48 41 -2 8 3 10 13 7 8 -4 15 -2 15 4 0 5 -9 13 -19 17
-11 4 -21 12 -21 17 -1 6 -5 9 -9 8 -9 -2 -7 49 2 65 9 14 9 14 -18 -1z"/>
<path d="M2560 3810 c33 -61 114 -197 128 -212 8 -9 36 -29 64 -43 36 -19 53
-23 66 -16 9 6 14 11 9 11 -4 0 5 19 19 42 32 50 42 38 -131 140 -66 39 -131
78 -144 87 -24 15 -24 15 -11 -9z"/>
<path d="M1677 3617 c-11 -175 -9 -214 8 -221 14 -5 56 58 109 161 16 32 24
190 8 167 -8 -12 -91 -13 -108 -2 -8 5 -13 -27 -17 -105z"/>
<path d="M6387 3599 c-180 -28 -274 -243 -180 -411 73 -129 274 -167 396 -74
l42 32 3 112 3 112 -71 0 -70 0 0 -40 c0 -38 2 -40 30 -40 30 0 30 -1 30 -55
l0 -56 -42 -19 c-77 -35 -182 -17 -231 38 -64 71 -59 196 10 273 58 64 144 76
232 33 l53 -27 20 21 c29 28 18 46 -44 75 -61 29 -113 36 -181 26z"/>
<path d="M10695 3595 c-72 -19 -115 -69 -115 -132 0 -93 59 -139 200 -157 103
-13 142 -48 126 -111 -19 -76 -227 -73 -274 5 -12 20 -13 20 -42 3 -17 -9 -30
-23 -30 -30 0 -25 74 -83 123 -98 177 -53 338 42 307 180 -16 70 -59 98 -191
125 -49 9 -100 25 -114 34 -31 20 -34 65 -6 90 46 41 161 38 208 -6 l22 -20
32 23 32 22 -35 33 c-55 50 -147 65 -243 39z"/>
<path d="M3910 3330 l0 -260 40 0 40 0 2 198 3 197 83 -117 c46 -65 89 -118
96 -118 6 0 50 52 96 116 l85 116 3 -196 2 -196 40 0 c25 0 40 5 40 13 1 6 1
122 1 257 l0 245 -48 3 -48 2 -84 -120 c-46 -66 -84 -120 -85 -120 -1 0 -40
54 -86 120 l-85 120 -47 0 -48 0 0 -260z"/>
<path d="M5144 3576 c-3 -8 -4 -25 -2 -38 l3 -23 193 -3 192 -2 0 40 0 40
-190 0 c-156 0 -192 -3 -196 -14z"/>
<path d="M7487 3583 c-11 -18 -227 -501 -227 -507 0 -3 18 -6 41 -6 l40 0 33
73 c18 39 62 136 96 215 34 79 66 140 70 135 8 -10 100 -218 100 -227 0 -3
-29 -6 -65 -6 -70 0 -74 -4 -50 -50 15 -29 18 -30 85 -30 l69 0 25 -55 c24
-53 26 -55 65 -55 23 0 41 4 41 8 0 5 -51 121 -113 258 l-112 249 -47 3 c-25
2 -48 -1 -51 -5z"/>
<path d="M8334 3573 c4 -10 52 -127 108 -261 l101 -243 44 3 44 3 98 236 c129
309 122 279 68 279 l-45 0 -78 -197 c-43 -109 -81 -202 -85 -206 -4 -5 -43 83
-87 195 l-80 203 -47 3 c-42 3 -47 1 -41 -15z"/>
<path d="M9490 3330 l0 -260 40 0 40 0 0 226 0 226 106 -4 c102 -3 107 -4 130
-31 24 -28 31 -76 18 -112 -9 -24 -58 -45 -104 -45 -40 0 -40 0 -40 -37 1 -33
12 -50 83 -130 81 -93 81 -93 129 -93 26 0 48 2 48 5 0 2 -36 44 -80 92 l-80
88 38 16 c126 55 133 230 11 298 -33 19 -54 21 -188 21 l-151 0 0 -260z"/>
<path d="M11620 3550 l0 -40 190 0 190 0 0 40 0 40 -190 0 -190 0 0 -40z"/>
<path d="M5142 3223 l3 -148 193 -3 192 -2 0 40 0 40 -150 0 -151 0 3 72 3 71
140 1 140 1 3 38 3 37 -191 0 -191 0 3 -147z"/>
<path d="M11620 3220 l0 -150 190 0 190 0 0 40 0 40 -150 0 -150 0 0 70 0 69
143 3 142 3 3 38 3 37 -185 0 -186 0 0 -150z"/>
<path d="M2758 3202 c-64 -110 -68 -121 -68 -179 0 -34 5 -65 10 -68 6 -3 10
-2 10 2 0 5 24 6 54 3 l55 -6 6 71 c3 38 5 121 3 183 l-3 112 -67 -118z"/>
<path d="M1695 3130 c-3 -6 -3 -15 1 -22 5 -7 3 -8 -6 -3 -10 6 -12 4 -7 -9 4
-9 3 -15 -2 -12 -9 6 -27 -31 -27 -53 1 -12 286 -192 294 -186 2 2 -29 57 -68
122 -67 112 -75 121 -125 146 -32 15 -57 22 -60 17z"/>
<path d="M2192 2794 c-47 -31 -51 -37 -38 -50 9 -8 23 -32 33 -52 9 -20 18
-38 19 -40 6 -9 269 148 272 162 3 14 -11 16 -115 15 -117 0 -118 -1 -171 -35z"/>
</g>
</svg>
