<?xml version="1.0" standalone="no"?>
<!DOCTYPE svg PUBLIC "-//W3C//DTD SVG 20010904//EN"
 "http://www.w3.org/TR/2001/REC-SVG-20010904/DTD/svg10.dtd">
<svg version="1.0" xmlns="http://www.w3.org/2000/svg"
 width="8000.000000pt" height="1555.000000pt" viewBox="0 0 8000.000000 1555.000000"
 preserveAspectRatio="xMidYMid meet">

<g transform="translate(0.000000,1555.000000) scale(0.100000,-0.100000)"
fill="#000000" stroke="none">
<path d="M7195 11684 c-16 -8 -37 -21 -45 -29 -8 -7 -28 -17 -45 -21 -16 -4
-49 -20 -74 -35 -24 -16 -78 -43 -120 -60 -42 -17 -88 -42 -103 -54 -14 -12
-46 -27 -71 -34 -25 -6 -58 -22 -74 -35 -15 -13 -68 -44 -118 -68 -146 -73
-269 -139 -285 -153 -8 -7 -40 -25 -70 -39 -30 -14 -82 -42 -115 -61 -33 -20
-80 -45 -105 -56 -25 -11 -61 -30 -80 -43 -19 -13 -102 -60 -185 -106 -82 -46
-181 -101 -220 -123 -38 -21 -97 -54 -130 -72 -180 -97 -373 -209 -392 -228
-22 -19 -22 -22 -6 -39 15 -16 37 -18 267 -18 138 0 546 5 906 11 l655 10 50
24 c28 13 66 30 87 38 20 9 45 24 57 36 11 11 42 32 68 46 26 14 69 42 95 63
26 20 69 48 95 62 26 13 64 37 83 54 19 16 59 40 90 54 120 54 138 85 64 103
-44 11 -124 76 -124 100 0 15 47 10 64 -6 8 -8 19 -15 24 -15 6 0 43 -13 83
-30 63 -25 76 -28 88 -16 21 22 -42 96 -81 96 -44 0 -68 17 -68 48 -1 30 -15
51 -45 68 -15 9 -19 20 -17 43 3 27 0 31 -20 31 -14 0 -37 13 -52 29 l-28 29
18 55 c9 31 14 65 10 80 -8 32 -83 112 -113 122 -27 7 -29 18 -8 35 8 7 15 17
15 22 0 22 33 78 46 78 8 0 14 5 14 10 0 15 -51 12 -85 -6z m-75 -198 c0 -17
-18 -25 -42 -18 -30 8 -21 32 12 32 19 0 30 -5 30 -14z"/>
<path d="M8920 10280 c0 -23 45 -110 86 -165 12 -16 43 -70 70 -120 26 -49 54
-98 62 -107 13 -15 54 -86 164 -283 22 -38 49 -84 61 -101 12 -18 29 -45 38
-60 43 -74 213 -358 264 -439 30 -49 82 -133 115 -185 102 -163 116 -175 312
-274 185 -94 198 -100 299 -158 36 -21 75 -38 86 -38 12 0 34 -11 50 -24 42
-35 68 -46 108 -46 26 0 43 -7 60 -26 14 -15 25 -23 25 -19 0 4 7 2 15 -5 10
-9 15 -9 15 -1 0 6 7 11 15 11 8 0 15 6 15 14 0 8 6 16 13 19 6 2 9 8 4 12 -4
5 -13 3 -19 -3 -7 -7 -22 -12 -35 -12 -18 0 -23 6 -23 25 0 14 5 25 10 25 6 0
10 9 10 19 0 11 9 23 20 26 15 5 19 12 15 26 -5 14 1 22 19 31 14 6 26 18 26
26 0 22 33 72 48 72 9 0 13 12 12 38 -4 75 -1 90 17 88 13 -1 18 7 18 32 0 24
9 41 38 67 21 19 40 48 43 65 5 21 12 30 25 30 11 0 19 3 19 8 0 4 10 12 22
17 26 12 56 61 57 93 1 16 -7 26 -26 33 -16 6 -46 29 -68 52 -22 23 -53 50
-70 59 -33 19 -32 19 -165 104 -52 34 -114 70 -136 81 -23 11 -48 25 -55 32
-8 6 -39 27 -69 46 -314 194 -374 230 -545 328 -38 22 -79 49 -90 58 -11 10
-41 25 -65 34 -25 9 -56 26 -70 39 -14 12 -59 42 -100 66 -41 24 -96 56 -121
72 -25 15 -51 28 -57 28 -6 0 -27 14 -46 30 -18 17 -51 37 -72 46 -21 9 -52
27 -69 40 -18 13 -36 24 -42 24 -6 0 -51 27 -102 60 -111 74 -156 98 -199 106
-28 6 -32 4 -32 -16z"/>
<path d="M2900 9685 c0 -11 -6 -49 -14 -85 -43 -195 -70 -746 -82 -1700 -8
-573 -15 -532 94 -565 l60 -18 37 23 c25 16 45 40 61 74 13 28 42 80 64 116
21 36 51 88 66 115 14 28 32 57 39 65 7 8 32 53 56 100 23 47 65 123 93 170
66 112 126 221 194 350 30 58 61 112 68 120 7 9 35 58 61 110 l48 95 -2 215
c-1 118 -8 301 -17 407 -9 105 -16 211 -16 235 0 24 -6 54 -13 67 -13 26 -37
40 -37 22 0 -17 -64 -100 -77 -100 -7 -1 -20 14 -29 32 -9 17 -20 34 -24 37
-4 3 -9 14 -12 25 -3 15 -11 7 -36 -37 -18 -32 -37 -60 -42 -63 -5 -3 -21 14
-35 39 -28 49 -50 62 -71 45 -9 -7 -31 -9 -59 -6 -37 5 -46 3 -58 -13 -8 -11
-16 -17 -19 -14 -4 3 -9 -4 -13 -15 -8 -26 -42 -28 -50 -3 -6 20 -49 45 -59
35 -3 -4 -6 -13 -6 -22 0 -15 -46 -61 -61 -61 -5 0 -15 21 -22 48 -8 26 -24
63 -36 82 -11 19 -28 49 -36 65 -11 24 -14 26 -15 10z"/>
<path d="M65850 8793 c-123 -12 -365 -57 -420 -77 -36 -14 -83 -30 -105 -37
-38 -11 -170 -74 -281 -133 -72 -39 -207 -167 -257 -244 -87 -136 -125 -225
-144 -334 -45 -272 -13 -469 112 -698 30 -56 133 -169 198 -218 38 -29 104
-68 146 -88 42 -19 97 -46 122 -59 26 -14 71 -30 100 -36 30 -6 71 -20 91 -30
20 -11 99 -33 175 -50 152 -35 184 -40 388 -68 198 -28 401 -68 460 -91 28
-10 79 -26 114 -35 75 -19 147 -53 193 -93 18 -15 49 -38 69 -52 22 -14 55
-55 85 -103 l49 -80 3 -134 4 -133 -42 -86 c-83 -166 -192 -254 -421 -339 -19
-8 -119 -23 -223 -35 -166 -19 -204 -20 -338 -11 -175 13 -318 36 -368 61 -19
10 -55 23 -80 30 -69 19 -208 100 -296 173 -75 62 -151 142 -238 250 -37 45
-67 59 -82 36 -3 -6 -27 -21 -53 -33 -94 -45 -287 -185 -303 -222 -14 -30 11
-100 47 -134 14 -13 25 -29 25 -35 0 -6 23 -41 51 -76 47 -58 75 -87 189 -193
34 -32 170 -129 214 -153 162 -87 322 -142 556 -190 130 -27 146 -28 435 -28
298 0 301 0 475 33 96 19 195 42 219 53 24 11 71 26 105 35 33 9 72 24 87 35
15 10 46 27 70 38 24 10 73 41 108 68 35 26 75 56 89 65 45 30 139 140 216
255 45 68 97 193 108 258 5 33 16 95 25 138 14 67 15 94 4 200 -17 178 -38
271 -84 367 -92 193 -230 325 -446 426 -42 20 -93 45 -114 55 -59 31 -172 68
-287 95 -58 13 -151 35 -208 49 -56 14 -145 30 -198 35 -52 6 -127 17 -167 26
-40 8 -119 24 -177 35 -58 10 -125 26 -150 34 -25 8 -74 21 -110 30 -94 24
-237 97 -296 152 -44 41 -55 59 -74 121 -18 60 -22 91 -18 170 3 89 7 103 43
176 22 43 51 86 65 94 14 9 28 22 33 29 8 13 126 92 172 115 17 8 44 22 60 31
51 27 308 67 427 67 348 0 702 -131 874 -324 36 -40 46 -46 81 -46 28 0 46 6
59 21 10 12 35 30 54 40 19 10 62 39 95 64 33 24 78 53 101 64 48 22 84 64 84
97 0 21 -39 73 -126 171 -16 17 -54 50 -84 73 -30 23 -80 60 -110 83 -126 95
-365 187 -550 212 -58 8 -136 21 -175 30 -65 14 -350 19 -455 8z"/>
<path d="M35735 8775 c-55 -7 -147 -18 -205 -24 -105 -10 -347 -80 -402 -114
-12 -9 -43 -21 -68 -27 -25 -7 -63 -25 -84 -41 -22 -16 -45 -29 -52 -29 -31 0
-260 -175 -354 -272 -57 -58 -182 -214 -212 -264 -10 -16 -38 -60 -63 -99 -25
-38 -48 -77 -52 -85 -3 -8 -23 -54 -44 -103 -22 -48 -39 -92 -39 -98 0 -6 -11
-37 -25 -68 -29 -66 -71 -244 -92 -391 -11 -81 -13 -163 -9 -360 5 -242 7
-261 35 -374 17 -66 31 -126 31 -133 0 -24 69 -205 112 -293 39 -81 88 -167
157 -275 101 -159 351 -388 503 -460 29 -14 64 -32 78 -40 36 -21 144 -64 230
-91 41 -13 94 -30 118 -39 46 -16 225 -47 417 -71 137 -17 368 -12 495 12 41
8 118 21 170 29 52 9 118 26 145 39 28 13 75 29 105 36 71 17 243 107 355 186
120 85 225 166 237 182 7 10 23 25 35 33 12 8 40 39 62 69 l41 54 0 698 c0
489 -3 704 -11 721 -6 14 -22 30 -36 36 -16 7 -158 11 -448 11 l-424 0 -28
-24 -28 -24 -3 -194 c-4 -201 4 -260 36 -273 9 -4 95 -8 191 -9 170 -2 174 -3
193 -26 18 -23 19 -41 16 -356 -3 -318 -4 -334 -24 -361 -23 -32 -151 -125
-204 -149 -19 -8 -69 -31 -110 -50 -41 -18 -111 -42 -155 -53 -44 -10 -109
-27 -145 -36 -56 -15 -97 -17 -300 -12 -176 4 -249 9 -290 21 -30 9 -89 24
-130 32 -49 11 -123 40 -216 86 -112 56 -158 85 -220 141 -44 38 -83 77 -88
86 -5 9 -21 30 -36 46 -112 120 -219 330 -262 510 -59 250 -61 476 -8 729 17
81 41 169 54 195 13 25 29 64 36 86 45 144 226 376 385 498 180 136 270 174
585 248 35 8 123 13 245 13 174 -1 198 -3 280 -27 50 -14 106 -29 125 -32 45
-9 210 -76 298 -121 69 -36 141 -84 213 -141 48 -38 60 -40 103 -13 42 25 268
265 280 296 17 42 -14 85 -120 165 -54 41 -119 87 -144 103 -116 74 -194 118
-232 132 -23 8 -46 18 -52 23 -6 5 -36 17 -66 26 -30 10 -83 28 -117 41 -71
28 -267 58 -468 73 -162 13 -167 12 -300 -4z"/>
<path d="M26986 8689 c-21 -3 -47 -16 -59 -28 -21 -21 -22 -29 -22 -240 1
-239 5 -260 62 -282 41 -15 2542 -8 2570 8 36 21 42 66 40 290 -2 201 -3 214
-23 233 l-21 21 -1255 2 c-690 1 -1272 -1 -1292 -4z"/>
<path d="M43221 8684 c-37 -15 -41 -22 -110 -179 -34 -77 -77 -174 -96 -215
-18 -41 -63 -142 -100 -225 -37 -82 -82 -181 -100 -220 -18 -38 -36 -81 -40
-95 -4 -14 -18 -43 -31 -65 -13 -23 -30 -60 -38 -84 -15 -42 -34 -82 -136
-296 -29 -60 -59 -127 -67 -149 -7 -22 -24 -58 -37 -81 -13 -22 -27 -51 -31
-65 -6 -25 -23 -61 -104 -231 -23 -47 -41 -90 -41 -95 0 -5 -10 -27 -21 -49
-12 -22 -30 -64 -40 -94 -10 -29 -27 -67 -38 -85 -11 -17 -27 -51 -37 -76 -10
-25 -28 -61 -41 -80 -13 -19 -23 -42 -23 -51 0 -9 -13 -40 -29 -70 -15 -30
-34 -72 -41 -94 -12 -38 -39 -98 -115 -260 -18 -38 -50 -106 -70 -150 -20 -44
-52 -111 -71 -150 -36 -75 -87 -195 -99 -233 -4 -13 -20 -45 -37 -72 -21 -34
-29 -57 -26 -81 5 -56 21 -59 305 -56 281 3 273 1 305 77 11 25 32 72 48 105
26 54 76 165 147 325 13 30 40 85 59 121 19 37 34 72 34 79 0 7 16 46 35 86
19 40 35 79 35 87 0 8 13 41 29 73 34 67 74 163 103 244 10 30 46 110 79 178
32 67 59 128 59 135 0 7 15 44 34 82 19 39 49 104 68 145 19 41 49 104 66 140
17 36 40 90 52 120 12 30 26 60 31 66 5 6 20 42 33 80 13 38 35 92 49 119 13
28 41 88 62 135 47 109 99 220 136 292 16 31 29 62 29 69 0 17 90 198 102 205
5 4 16 0 23 -7 18 -20 78 -139 121 -239 20 -47 44 -103 54 -125 10 -22 30 -67
45 -100 14 -32 32 -66 39 -75 7 -8 19 -33 26 -55 6 -22 25 -67 40 -100 16 -33
47 -103 70 -155 23 -52 57 -129 75 -170 18 -41 37 -86 41 -100 4 -14 14 -36
22 -48 20 -31 79 -163 104 -232 11 -30 28 -67 39 -81 24 -34 49 -103 49 -135
0 -45 -17 -47 -464 -46 -276 1 -426 -3 -439 -10 -17 -9 -19 -17 -14 -58 3 -27
17 -66 31 -88 13 -22 30 -59 36 -82 6 -24 27 -73 46 -110 19 -37 34 -73 34
-81 0 -23 44 -79 75 -93 24 -11 115 -14 475 -15 405 -2 446 -3 462 -19 19 -19
141 -254 153 -292 4 -14 30 -72 58 -130 28 -58 64 -138 81 -179 22 -53 42 -83
69 -105 l39 -31 239 -3 c212 -3 243 -2 266 13 23 15 25 22 21 66 -4 34 -15 63
-36 92 -16 23 -35 63 -42 87 -7 25 -20 56 -30 70 -9 14 -23 43 -30 65 -7 22
-22 58 -35 80 -12 22 -26 51 -30 65 -4 14 -22 57 -40 95 -19 39 -52 113 -74
165 -23 52 -54 120 -70 150 -16 30 -34 71 -40 91 -6 19 -35 84 -65 145 -29 60
-57 120 -61 134 -4 14 -18 42 -31 62 -13 20 -33 65 -44 99 -12 35 -30 73 -40
86 -10 13 -22 38 -25 56 -4 18 -20 57 -35 87 -48 95 -110 226 -110 235 0 11
-134 309 -170 377 -17 31 -30 61 -30 67 0 12 -76 178 -115 252 -14 26 -25 54
-25 62 0 8 -18 50 -40 93 -22 43 -40 83 -40 87 0 5 -28 66 -61 135 -34 70 -68
144 -75 165 -8 21 -23 51 -34 67 -11 15 -20 34 -20 42 0 7 -17 49 -39 93 -21
44 -46 101 -56 128 -10 29 -29 57 -50 72 l-32 25 -273 3 c-181 1 -282 -2 -299
-9z"/>
<path d="M49040 8680 c-27 -27 -25 -46 11 -127 17 -37 39 -90 49 -118 10 -27
40 -101 68 -163 28 -62 58 -136 68 -164 9 -28 29 -75 45 -105 16 -30 29 -61
29 -69 0 -8 14 -41 30 -74 17 -33 30 -65 30 -73 0 -7 9 -31 21 -52 11 -22 32
-69 45 -105 14 -36 39 -92 55 -124 16 -33 29 -65 29 -73 0 -7 11 -36 25 -63
14 -28 36 -78 49 -112 37 -97 80 -203 131 -323 26 -60 58 -137 70 -170 13 -33
33 -78 44 -100 12 -21 21 -46 21 -53 0 -8 13 -40 28 -71 35 -68 66 -142 102
-241 15 -41 36 -91 48 -110 11 -19 26 -55 32 -80 7 -24 25 -70 41 -102 16 -32
29 -64 29 -71 0 -7 11 -36 26 -63 14 -27 36 -76 49 -109 37 -95 74 -185 105
-255 16 -36 32 -78 36 -95 4 -16 17 -46 30 -65 12 -19 28 -55 34 -80 17 -63
76 -176 97 -186 10 -4 135 -9 278 -11 196 -2 266 0 285 10 28 14 69 83 100
167 11 30 29 71 39 90 11 19 24 55 31 80 6 25 22 63 34 85 13 22 31 65 41 95
10 30 24 64 32 75 7 11 18 38 24 59 6 21 26 72 45 112 19 40 34 78 34 84 0 6
11 32 24 59 14 26 34 72 45 102 11 30 41 104 66 164 26 61 60 142 75 180 16
39 40 99 54 135 15 36 33 79 42 95 9 17 27 61 41 100 14 38 32 79 39 90 8 12
22 46 33 76 11 29 41 104 66 164 26 61 57 138 70 173 13 35 28 68 33 75 5 7
21 41 35 77 14 36 46 115 72 175 25 61 54 133 65 161 10 28 26 66 36 85 9 19
27 61 39 94 13 33 46 112 74 175 28 63 56 132 62 153 6 22 23 64 39 95 15 32
31 68 35 82 4 14 20 50 35 81 43 85 47 123 17 153 l-25 25 -269 -3 c-163 -2
-277 -8 -289 -14 -12 -7 -36 -52 -63 -124 -24 -62 -54 -131 -67 -154 -12 -22
-28 -63 -35 -90 -7 -27 -23 -71 -36 -97 -13 -27 -33 -77 -44 -112 -11 -35 -24
-67 -29 -70 -5 -3 -18 -35 -29 -70 -11 -35 -28 -79 -37 -97 -9 -18 -27 -64
-40 -103 -12 -38 -43 -119 -68 -180 -25 -60 -53 -132 -63 -160 -9 -27 -22 -59
-30 -71 -7 -11 -24 -52 -37 -90 -13 -38 -48 -125 -76 -194 -28 -69 -61 -152
-72 -185 -12 -33 -27 -69 -33 -80 -7 -11 -23 -51 -35 -90 -13 -38 -27 -75 -31
-81 -5 -6 -20 -42 -34 -80 -13 -38 -45 -118 -70 -179 -49 -115 -100 -244 -139
-355 -13 -36 -37 -92 -52 -125 -41 -84 -58 -82 -111 20 -23 44 -44 96 -48 115
-3 19 -17 55 -29 80 -13 25 -29 63 -35 85 -7 22 -25 69 -40 105 -57 131 -133
324 -163 415 -11 33 -35 94 -54 135 -19 42 -34 79 -34 83 0 3 -11 30 -24 59
-13 29 -31 78 -41 108 -10 30 -26 71 -36 90 -10 19 -27 60 -38 90 -34 99 -71
194 -95 250 -26 59 -61 148 -108 275 -16 43 -33 84 -38 90 -5 6 -23 49 -40 95
-66 179 -77 206 -89 229 -7 13 -26 60 -41 105 -27 77 -48 132 -106 273 -41 99
-21 93 -343 98 -271 5 -282 4 -301 -15z"/>
<path d="M57101 8679 l-21 -23 2 -1768 c3 -1681 4 -1768 21 -1785 16 -16 43
-18 254 -21 263 -3 277 0 288 60 3 18 7 698 8 1510 l2 1477 23 23 23 23 607
-1 c554 0 610 -2 640 -17 17 -10 55 -22 84 -27 128 -25 276 -156 352 -312 60
-123 68 -169 64 -351 l-3 -152 -44 -90 c-24 -49 -60 -109 -80 -133 -56 -67
-151 -141 -202 -156 -26 -8 -60 -21 -77 -30 -54 -28 -113 -35 -347 -40 -209
-5 -231 -8 -249 -25 -17 -18 -19 -38 -23 -246 -2 -158 0 -232 8 -248 7 -12 33
-45 58 -73 25 -28 63 -73 84 -100 36 -45 312 -359 467 -529 127 -140 347 -387
390 -439 19 -23 55 -60 79 -81 l44 -40 288 -3 c195 -2 295 0 309 8 29 15 25
59 -8 106 -16 21 -91 107 -167 189 -178 194 -271 298 -375 415 -106 119 -287
318 -394 432 -44 48 -85 98 -90 112 -13 34 12 62 68 75 171 41 248 68 352 124
125 68 275 213 329 317 10 19 28 49 40 65 12 17 28 48 35 70 7 22 24 60 37 84
12 24 23 56 23 70 0 14 10 60 21 101 30 107 37 348 14 445 -9 39 -22 104 -30
145 -13 71 -44 142 -139 314 -70 127 -260 309 -396 379 -25 13 -60 33 -79 44
-19 12 -57 27 -85 33 -28 7 -78 23 -111 35 -106 41 -211 46 -1166 51 l-907 5
-21 -22z"/>
<path d="M71910 8690 c-57 -14 -66 -34 -65 -141 1 -52 2 -154 3 -227 2 -133 2
-134 31 -162 l29 -29 1282 2 1282 2 19 24 c18 21 19 42 19 261 l0 239 -24 19
c-23 18 -63 19 -1283 19 -692 1 -1274 -3 -1293 -7z"/>
<path d="M18345 8665 l-25 -24 0 -1728 c0 -1017 4 -1744 10 -1768 5 -22 17
-45 26 -52 13 -10 77 -13 250 -13 213 0 234 2 255 19 l24 19 2 1304 c1 716 2
1311 3 1320 0 9 7 24 16 33 13 12 19 13 30 4 20 -16 140 -178 199 -269 27 -41
55 -81 63 -89 8 -8 25 -30 38 -50 14 -20 43 -61 64 -91 22 -30 56 -77 75 -105
19 -27 53 -75 75 -105 42 -57 47 -65 157 -221 38 -52 88 -121 113 -153 25 -32
56 -75 70 -96 22 -34 42 -62 131 -190 144 -207 171 -240 210 -251 52 -16 119
9 149 54 11 18 37 55 58 83 20 28 53 73 71 100 19 27 56 76 82 110 26 33 54
74 62 91 9 17 25 41 37 54 26 31 71 93 142 196 31 45 76 108 100 139 24 31 54
72 68 92 23 34 49 69 147 195 18 23 63 86 100 140 92 132 129 184 185 255 26
33 54 74 63 91 8 17 22 31 29 31 42 0 41 32 44 -1343 2 -1444 -2 -1350 64
-1362 18 -3 131 -5 250 -3 251 3 246 2 259 95 4 32 8 822 9 1755 l0 1696 -24
29 -24 28 -281 3 c-298 3 -349 -2 -376 -41 -9 -12 -27 -38 -40 -57 -26 -38
-94 -135 -211 -300 -40 -58 -94 -134 -119 -170 -25 -36 -59 -83 -75 -105 -33
-44 -88 -120 -125 -175 -14 -19 -34 -48 -45 -65 -11 -16 -43 -61 -70 -100 -27
-38 -60 -85 -72 -103 -13 -19 -35 -48 -49 -65 -15 -18 -40 -53 -55 -79 -16
-25 -50 -73 -76 -106 -25 -33 -51 -69 -57 -80 -17 -31 -126 -174 -148 -195
-34 -30 -49 -16 -178 168 -22 32 -51 72 -65 91 -14 19 -41 57 -60 85 -19 28
-63 90 -97 138 -35 47 -78 109 -97 136 -19 28 -48 67 -63 89 -15 21 -39 56
-53 76 -14 21 -60 87 -103 147 -43 59 -102 142 -132 183 -29 41 -65 91 -80
110 -34 46 -62 87 -131 190 -31 47 -68 99 -83 116 -14 17 -33 45 -43 62 -25
47 -61 52 -371 52 l-278 0 -24 -25z"/>
<path d="M26936 7136 c-17 -17 -26 -39 -30 -77 -3 -30 -4 -474 -3 -986 l2
-933 28 -27 27 -28 1290 0 1289 0 23 23 c22 22 23 28 26 255 3 225 2 234 -18
260 l-21 27 -1008 0 -1008 0 -19 21 c-18 20 -19 45 -22 458 -3 462 -2 469 45
490 17 8 294 11 954 11 999 0 972 -1 999 49 6 12 9 102 8 230 -2 194 -3 213
-21 229 -18 16 -100 17 -1268 20 l-1250 2 -23 -24z"/>
<path d="M71873 7136 l-28 -24 -2 -969 c-1 -649 2 -979 9 -1001 20 -65 -54
-62 1348 -62 l1271 0 24 25 25 24 0 238 c0 219 -2 240 -20 263 l-19 25 -999
-3 c-1148 -3 -1040 -13 -1052 94 -4 32 -5 232 -3 443 4 375 7 414 37 433 5 4
437 7 959 7 650 1 954 4 968 12 34 18 39 53 39 269 l0 209 -26 20 c-27 21 -27
21 -1265 21 l-1238 0 -28 -24z"/>
<path d="M10740 6700 c-22 -32 -45 -72 -51 -87 -6 -15 -34 -66 -63 -113 -53
-86 -170 -290 -222 -389 -30 -55 -52 -95 -124 -221 -23 -41 -57 -102 -74 -135
-51 -94 -60 -108 -82 -135 -12 -14 -29 -45 -38 -70 -10 -25 -27 -61 -40 -80
-12 -19 -28 -51 -36 -70 -7 -19 -24 -50 -38 -69 -14 -18 -42 -72 -63 -120
l-38 -86 5 -320 c4 -216 10 -336 19 -370 7 -27 15 -73 18 -100 3 -28 11 -63
18 -78 11 -24 17 -27 43 -22 17 4 40 17 51 30 19 23 27 24 118 24 54 0 97 -4
97 -10 0 -11 149 -11 210 1 29 5 49 5 57 -2 7 -6 45 -9 87 -6 41 2 72 0 70 -4
-5 -8 29 -28 49 -28 27 0 53 143 72 380 25 325 54 2084 35 2120 -18 33 -37 23
-80 -40z"/>
<path d="M2935 5540 c-6 -10 24 -59 38 -60 4 0 7 -9 7 -20 0 -18 -27 -35 -82
-54 -10 -3 -18 -12 -18 -21 0 -34 -30 -75 -55 -75 -20 0 -25 -6 -31 -36 -5
-26 -2 -40 9 -51 19 -20 47 -10 47 16 0 11 5 23 10 26 6 3 10 15 10 26 0 13 7
19 24 19 13 0 40 7 59 15 46 19 76 19 84 0 7 -20 -23 -54 -64 -71 -42 -18 -73
-52 -73 -81 0 -27 -16 -30 -41 -7 -16 15 -20 15 -46 -1 -40 -24 -65 -61 -66
-100 -1 -29 -6 -35 -38 -48 -23 -9 -42 -26 -53 -47 -15 -32 -15 -34 4 -47 11
-8 20 -21 20 -29 0 -8 5 -14 10 -14 6 0 10 -11 10 -24 0 -23 -11 -30 -72 -49
-24 -8 -12 -42 27 -72 19 -14 39 -25 45 -25 13 0 117 -67 126 -81 3 -5 14 -9
25 -9 11 0 38 -17 62 -39 23 -21 62 -48 87 -61 25 -12 77 -46 116 -76 39 -30
75 -54 80 -54 5 0 31 -15 59 -33 63 -42 229 -143 297 -180 28 -15 64 -39 80
-52 16 -14 35 -25 42 -25 8 0 48 -22 90 -50 42 -27 95 -59 118 -71 24 -12 61
-34 83 -49 63 -43 174 -109 394 -235 29 -16 89 -54 134 -83 45 -30 110 -64
145 -77 l62 -24 0 27 c0 32 -42 116 -76 152 -13 14 -30 45 -39 70 -9 25 -23
48 -31 53 -9 5 -24 29 -35 54 -11 25 -32 62 -47 82 -16 20 -35 52 -42 71 -8
19 -28 58 -44 85 -60 101 -160 261 -187 301 -16 23 -33 53 -38 66 -12 31 -88
157 -111 183 -9 11 -25 40 -34 65 -10 25 -26 54 -36 65 -10 11 -26 36 -35 55
-10 19 -33 52 -51 73 -18 21 -35 50 -39 64 -15 61 -120 183 -188 217 -28 15
-90 49 -137 77 -47 27 -96 54 -110 59 -14 6 -57 26 -95 45 -38 19 -75 35 -83
35 -17 0 -73 33 -123 72 -36 29 -129 68 -161 68 -9 0 -20 -4 -23 -10z m15
-412 c14 -1 26 -11 28 -20 3 -15 -4 -18 -42 -18 -37 0 -46 4 -51 21 -8 24 12
43 30 29 5 -4 21 -10 35 -12z"/>
<path d="M2472 4878 c-2 -22 4 -31 29 -43 42 -22 83 -16 87 13 2 12 -3 24 -10
26 -7 2 -33 10 -59 18 l-45 14 -2 -28z"/>
<path d="M7469 3396 c-2 -2 -147 -6 -321 -9 l-318 -5 -72 -36 c-82 -40 -186
-104 -230 -141 -16 -14 -35 -25 -42 -25 -7 0 -25 -13 -40 -29 -15 -16 -49 -37
-74 -46 -54 -21 -129 -73 -155 -108 -10 -14 -31 -27 -48 -31 -38 -7 -47 -32
-26 -68 9 -17 17 -38 17 -49 0 -13 7 -19 23 -19 28 0 64 -34 48 -45 -25 -15
-5 -74 30 -87 9 -4 19 -23 23 -47 4 -24 12 -41 20 -41 9 0 13 -17 13 -61 1
-34 6 -64 11 -68 6 -4 16 -19 21 -34 7 -17 23 -32 42 -39 27 -9 30 -14 26 -38
-5 -22 -1 -29 19 -38 13 -7 24 -18 24 -27 0 -8 5 -15 10 -15 18 0 50 -39 44
-55 -9 -21 62 -18 104 6 18 11 38 19 43 19 15 0 141 63 176 88 17 12 40 22 51
22 10 0 34 11 53 24 19 13 90 53 159 89 69 35 186 96 261 134 75 39 163 88
195 108 33 21 86 51 119 67 33 16 110 57 170 92 61 34 148 85 195 112 47 26
103 58 125 71 22 13 60 32 85 44 81 37 90 42 130 79 l40 37 -6 64 c-5 44 -13
71 -27 87 l-20 22 -447 0 c-246 0 -449 -2 -451 -4z"/>
<path d="M6088 2842 c-46 -3 -47 -4 -36 -28 16 -34 70 -34 86 1 13 29 10 31
-50 27z"/>
</g>
</svg>
